<svg xmlns="http://www.w3.org/2000/svg" viewBox="0 0 299 120" role="img" aria-label="foe">
<g transform="translate(0,0) scale(1.0)" fill="none" stroke="currentColor" stroke-linecap="round">
  <path d="M60.0,49.0 L60.0,14.0" stroke-width="1.8" opacity="1.0"/>
  <path d="M50.47,54.5 L20.16,37.0" stroke-width="1.8" opacity="1.0"/>
  <path d="M50.47,65.5 L20.16,83.0" stroke-width="1.8" opacity="1.0"/>
  <path d="M60.0,71.0 L60.0,106.0" stroke-width="1.8" opacity="1.0"/>
  <path d="M69.53,65.5 L99.84,83.0" stroke-width="1.8" opacity="1.0"/>
  <path d="M69.53,54.5 L99.84,37.0" stroke-width="1.8" opacity="1.0"/>
  <path d="M54.5,50.47 L45.0,34.02" stroke-width="1.2" opacity="0.6"/>
  <path d="M49.0,60.0 L30.0,60.0" stroke-width="1.2" opacity="0.6"/>
  <path d="M54.5,69.53 L45.0,85.98" stroke-width="1.2" opacity="0.6"/>
  <path d="M65.5,69.53 L75.0,85.98" stroke-width="1.2" opacity="0.6"/>
  <path d="M71.0,60.0 L90.0,60.0" stroke-width="1.2" opacity="0.6"/>
  <path d="M65.5,50.47 L75.0,34.02" stroke-width="1.2" opacity="0.6"/>
  <path d="M57.15,49.37 L54.31,38.75" stroke-width="0.9" opacity="0.35"/>
  <path d="M52.22,52.22 L44.44,44.44" stroke-width="0.9" opacity="0.35"/>
  <path d="M49.37,57.15 L38.75,54.31" stroke-width="0.9" opacity="0.35"/>
  <path d="M49.37,62.85 L38.75,65.69" stroke-width="0.9" opacity="0.35"/>
  <path d="M52.22,67.78 L44.44,75.56" stroke-width="0.9" opacity="0.35"/>
  <path d="M57.15,70.63 L54.31,81.25" stroke-width="0.9" opacity="0.35"/>
  <path d="M62.85,70.63 L65.69,81.25" stroke-width="0.9" opacity="0.35"/>
  <path d="M67.78,67.78 L75.56,75.56" stroke-width="0.9" opacity="0.35"/>
  <path d="M70.63,62.85 L81.25,65.69" stroke-width="0.9" opacity="0.35"/>
  <path d="M70.63,57.15 L81.25,54.31" stroke-width="0.9" opacity="0.35"/>
  <path d="M67.78,52.22 L75.56,44.44" stroke-width="0.9" opacity="0.35"/>
  <path d="M62.85,49.37 L65.69,38.75" stroke-width="0.9" opacity="0.35"/>
  <circle cx="60.0" cy="60.0" r="26.0" stroke-width="1.2" opacity="0.42"/>
  <circle cx="60.0" cy="60.0" r="38.0" stroke-width="1.0" opacity="0.28"/>
  <circle cx="60.0" cy="60.0" r="52.0" stroke-width="1.4" opacity="0.55" stroke-dasharray="4 5"/>
  <circle cx="60.0" cy="60.0" r="5.0" fill="var(--foe-accent, #C7791A)" stroke="none"/>
</g>
<g fill="currentColor">
  <path d="M181.7607142857143 22.871428571428574V28.88214285714286H173.55Q169.66071428571428 28.88214285714286 168.1482142857143 30.47321428571429Q166.6357142857143 32.06428571428572 166.6357142857143 36.11071428571429V40.0H181.7607142857143V45.61785714285714H166.6357142857143V84.0H159.40714285714284V45.61785714285714H147.66071428571428V40.0H159.40714285714284V36.93571428571428Q159.40714285714284 29.707142857142856 162.7267857142857 26.289285714285715Q166.04642857142858 22.871428571428574 173.07857142857142 22.871428571428574Z"/>
  <path d="M212.6392857142857 45.06785714285714Q207.1392857142857 45.06785714285714 204.31071428571428 49.349999999999994Q201.48214285714286 53.63214285714285 201.48214285714286 62.03928571428571Q201.48214285714286 70.40714285714286 204.31071428571428 74.70892857142857Q207.1392857142857 79.01071428571429 212.6392857142857 79.01071428571429Q218.17857142857144 79.01071428571429 221.00714285714287 74.70892857142857Q223.8357142857143 70.40714285714286 223.8357142857143 62.03928571428571Q223.8357142857143 53.63214285714285 221.00714285714287 49.349999999999994Q218.17857142857144 45.06785714285714 212.6392857142857 45.06785714285714ZM212.6392857142857 38.93928571428572Q221.79285714285714 38.93928571428572 226.64464285714286 44.871428571428574Q231.49642857142857 50.80357142857143 231.49642857142857 62.03928571428571Q231.49642857142857 73.31428571428572 226.6642857142857 79.22678571428571Q221.83214285714286 85.13928571428572 212.6392857142857 85.13928571428572Q203.4857142857143 85.13928571428572 198.65357142857144 79.22678571428571Q193.82142857142858 73.31428571428572 193.82142857142858 62.03928571428571Q193.82142857142858 50.80357142857143 198.65357142857144 44.871428571428574Q203.4857142857143 38.93928571428572 212.6392857142857 38.93928571428572Z"/>
  <path d="M280.5642857142857 60.19285714285714V63.72857142857143H249.25357142857143V63.964285714285715Q249.25357142857143 71.15357142857142 253.00535714285715 75.08214285714286Q256.75714285714287 79.01071428571429 263.59285714285716 79.01071428571429Q267.05 79.01071428571429 270.82142857142856 77.91071428571428Q274.59285714285716 76.81071428571428 278.875 74.57142857142857V81.76071428571429Q274.75 83.45 270.9196428571429 84.29464285714286Q267.0892857142857 85.13928571428572 263.51428571428573 85.13928571428572Q253.2607142857143 85.13928571428572 247.4857142857143 78.99107142857143Q241.7107142857143 72.84285714285714 241.7107142857143 62.03928571428571Q241.7107142857143 51.510714285714286 247.36785714285713 45.225Q253.025 38.93928571428572 262.4535714285714 38.93928571428572Q270.86071428571427 38.93928571428572 275.7125 44.635714285714286Q280.5642857142857 50.332142857142856 280.5642857142857 60.19285714285714ZM273.3357142857143 58.07142857142857Q273.17857142857144 51.707142857142856 270.33035714285717 48.3875Q267.4821428571429 45.06785714285714 262.13928571428573 45.06785714285714Q256.9142857142857 45.06785714285714 253.53571428571428 48.525000000000006Q250.15714285714287 51.98214285714286 249.52857142857144 58.11071428571429Z"/>
</g>
</svg>
