<svg xmlns="http://www.w3.org/2000/svg" viewBox="0 0 120 120" role="img" aria-label="foe">
<g transform="translate(0,0) scale(1.0)" fill="none" stroke="currentColor" stroke-linecap="round">
  <path d="M60.0,49.0 L60.0,14.0" stroke-width="1.8" opacity="1.0"/>
  <path d="M50.47,54.5 L20.16,37.0" stroke-width="1.8" opacity="1.0"/>
  <path d="M50.47,65.5 L20.16,83.0" stroke-width="1.8" opacity="1.0"/>
  <path d="M60.0,71.0 L60.0,106.0" stroke-width="1.8" opacity="1.0"/>
  <path d="M69.53,65.5 L99.84,83.0" stroke-width="1.8" opacity="1.0"/>
  <path d="M69.53,54.5 L99.84,37.0" stroke-width="1.8" opacity="1.0"/>
  <path d="M54.5,50.47 L45.0,34.02" stroke-width="1.2" opacity="0.6"/>
  <path d="M49.0,60.0 L30.0,60.0" stroke-width="1.2" opacity="0.6"/>
  <path d="M54.5,69.53 L45.0,85.98" stroke-width="1.2" opacity="0.6"/>
  <path d="M65.5,69.53 L75.0,85.98" stroke-width="1.2" opacity="0.6"/>
  <path d="M71.0,60.0 L90.0,60.0" stroke-width="1.2" opacity="0.6"/>
  <path d="M65.5,50.47 L75.0,34.02" stroke-width="1.2" opacity="0.6"/>
  <path d="M57.15,49.37 L54.31,38.75" stroke-width="0.9" opacity="0.35"/>
  <path d="M52.22,52.22 L44.44,44.44" stroke-width="0.9" opacity="0.35"/>
  <path d="M49.37,57.15 L38.75,54.31" stroke-width="0.9" opacity="0.35"/>
  <path d="M49.37,62.85 L38.75,65.69" stroke-width="0.9" opacity="0.35"/>
  <path d="M52.22,67.78 L44.44,75.56" stroke-width="0.9" opacity="0.35"/>
  <path d="M57.15,70.63 L54.31,81.25" stroke-width="0.9" opacity="0.35"/>
  <path d="M62.85,70.63 L65.69,81.25" stroke-width="0.9" opacity="0.35"/>
  <path d="M67.78,67.78 L75.56,75.56" stroke-width="0.9" opacity="0.35"/>
  <path d="M70.63,62.85 L81.25,65.69" stroke-width="0.9" opacity="0.35"/>
  <path d="M70.63,57.15 L81.25,54.31" stroke-width="0.9" opacity="0.35"/>
  <path d="M67.78,52.22 L75.56,44.44" stroke-width="0.9" opacity="0.35"/>
  <path d="M62.85,49.37 L65.69,38.75" stroke-width="0.9" opacity="0.35"/>
  <circle cx="60.0" cy="60.0" r="26.0" stroke-width="1.2" opacity="0.42"/>
  <circle cx="60.0" cy="60.0" r="38.0" stroke-width="1.0" opacity="0.28"/>
  <circle cx="60.0" cy="60.0" r="52.0" stroke-width="1.4" opacity="0.55" stroke-dasharray="4 5"/>
  <circle cx="60.0" cy="60.0" r="5.0" fill="currentColor" stroke="none"/>
</g>
</svg>
